<?xml version="1.0" encoding="UTF-8" standalone="no"?>
<!-- Created with Inkscape (http://www.inkscape.org/) -->

<svg
   xmlns:osb="http://www.openswatchbook.org/uri/2009/osb"
   xmlns:dc="http://purl.org/dc/elements/1.1/"
   xmlns:cc="http://creativecommons.org/ns#"
   xmlns:rdf="http://www.w3.org/1999/02/22-rdf-syntax-ns#"
   xmlns:svg="http://www.w3.org/2000/svg"
   xmlns="http://www.w3.org/2000/svg"
   xmlns:xlink="http://www.w3.org/1999/xlink"
   xmlns:sodipodi="http://sodipodi.sourceforge.net/DTD/sodipodi-0.dtd"
   xmlns:inkscape="http://www.inkscape.org/namespaces/inkscape"
   width="744.09448819"
   height="1052.3622047"
   id="svg2"
   version="1.1"
   inkscape:version="0.48.2 r9819"
   sodipodi:docname="set_game.svg">
  <defs
     id="defs4">
    <pattern
       inkscape:collect="always"
       xlink:href="#Strips1_1"
       id="pattern6127"
       patternTransform="matrix(10,0,0,10,-280.625,-475)" />
    <pattern
       inkscape:stockid="Stripes 1:1"
       id="Strips1_1"
       patternTransform="translate(0,0) scale(10,10)"
       height="1"
       width="2"
       patternUnits="userSpaceOnUse"
       inkscape:collect="always">
      <rect
         id="rect4562"
         height="2"
         width="1"
         y="-0.5"
         x="0"
         style="fill:black;stroke:none" />
    </pattern>
    <linearGradient
       id="linearGradient5979"
       osb:paint="solid">
      <stop
         style="stop-color:#00ff00;stop-opacity:1;"
         offset="0"
         id="stop5981" />
    </linearGradient>
    <pattern
       inkscape:stockid="Packed circles"
       id="Packedcircles"
       patternTransform="translate(0,0) scale(10,10)"
       height="1.73205080756"
       width="1"
       patternUnits="userSpaceOnUse"
       inkscape:collect="always">
      <circle
         id="circle4647"
         r="0.5"
         cy="0.5"
         cx="0"
         style="fill:black;stroke:none" />
      <circle
         id="circle4649"
         r="0.5"
         cy="0.5"
         cx="1"
         style="fill:black;stroke:none" />
      <circle
         id="circle4651"
         r="0.5"
         cy="1.36602540378"
         cx="0.5"
         style="fill:black;stroke:none" />
      <circle
         id="circle4653"
         r="0.5"
         cy="-0.366025403784"
         cx="0.5"
         style="fill:black;stroke:none" />
    </pattern>
  </defs>
  <sodipodi:namedview
     id="base"
     pagecolor="#ffffff"
     bordercolor="#666666"
     borderopacity="1.0"
     inkscape:pageopacity="0.0"
     inkscape:pageshadow="2"
     inkscape:zoom="3.2"
     inkscape:cx="195.44551"
     inkscape:cy="995.32318"
     inkscape:document-units="px"
     inkscape:current-layer="layer1"
     showgrid="false"
     inkscape:object-paths="false"
     inkscape:window-width="1920"
     inkscape:window-height="1018"
     inkscape:window-x="-8"
     inkscape:window-y="-8"
     inkscape:window-maximized="1" />
  <metadata
     id="metadata7">
    <rdf:RDF>
      <cc:Work
         rdf:about="">
        <dc:format>image/svg+xml</dc:format>
        <dc:type
           rdf:resource="http://purl.org/dc/dcmitype/StillImage" />
        <dc:title></dc:title>
      </cc:Work>
    </rdf:RDF>
  </metadata>
  <g
     inkscape:label="Layer 1"
     inkscape:groupmode="layer"
     id="layer1">
    <path
       style="fill:none;stroke:none"
       d="m 397.66213,364.96719 c -9.55208,-11.89306 -15.21537,-15.35183 -25.10982,-15.33548 -8.66168,0.0143 -15.73605,2.94229 -29.48588,12.20379 -8.9299,6.01492 -15.38081,9.73093 -17.9043,10.31365 -0.6875,0.15875 -1.95612,0.55961 -2.81915,0.89079 -0.86304,0.33117 -5.64429,0.37398 -10.625,0.0951 -7.8384,-0.43885 -9.99544,-1.11746 -16.04487,-5.04773 -7.8826,-5.12126 -20.12851,-17.06413 -19.13892,-18.66531 0.35776,-0.57888 0.0548,-1.05251 -0.67329,-1.05251 -0.72807,0 -1.32377,-0.84375 -1.32377,-1.875 0,-1.03125 -0.5957,-1.875 -1.32377,-1.875 -0.72807,0 -0.97613,-0.5625 -0.55123,-1.25 0.4249,-0.6875 0.0831,-1.25 -0.75956,-1.25 -0.84266,0 -1.17696,-0.35514 -0.7429,-0.7892 0.43406,-0.43406 -0.0347,-1.96547 -1.04167,-3.40314 -3.91243,-5.58577 -0.48396,-21.73372 4.71326,-22.19927 6.92855,-0.62064 10.88763,0.48586 19.52108,5.45587 13.78964,7.93827 18.99815,9.68574 28.86926,9.68574 7.34505,0 9.81364,-0.61713 16.5372,-4.13416 4.34683,-2.27379 11.81705,-7.01603 16.60049,-10.5383 4.78343,-3.52227 9.14281,-6.1287 9.6875,-5.79207 0.54469,0.33664 0.99034,0.0164 0.99034,-0.7117 0,-0.72807 0.42188,-1.25716 0.9375,-1.17574 0.51563,0.0814 1.35938,0.0111 1.875,-0.15625 6.19995,-2.01227 14.26525,-2.59783 17.70723,-1.2856 5.01276,1.91107 15.41801,13.07534 20.94085,22.46837 5.7128,9.71612 6.62862,16.28612 4.26175,30.57312 -2.83857,17.13415 -4.74043,17.74513 -15.09733,4.85002 z"
       id="path3036"
       inkscape:connector-curvature="0" />
    <path
       style="fill:none"
       d="m 353.00094,147.37146 c -2.45895,-2.54483 -7.1088,-7.55344 -10.33298,-11.13025 -12.70338,-14.09271 -23.01226,-13.50024 -48.26422,2.77385 -4.54211,2.92725 -9.46398,5.70492 -10.9375,6.17259 -1.47351,0.46768 -2.67911,1.40811 -2.67911,2.08986 0,0.68174 -0.56966,0.88746 -1.26592,0.45715 -0.69626,-0.43031 -2.89845,0.032 -4.89377,1.02743 -6.2572,3.1215 -27.59031,0.76766 -27.59031,-3.04424 0,-0.60409 -0.75722,-1.09835 -1.68271,-1.09835 -1.90314,0 -15.85381,-13.29681 -14.92507,-14.22555 0.33067,-0.33068 -0.57855,-1.33801 -2.0205,-2.23852 -1.44194,-0.90052 -2.62172,-2.34574 -2.62172,-3.21161 0,-0.86588 -0.5625,-1.57432 -1.25,-1.57432 -0.6875,0 -1.25,-0.51587 -1.25,-1.14637 0,-0.6305 -1.19036,-3.86488 -2.64524,-7.1875 -2.68516,-6.13229 -3.37625,-12.49965 -1.95389,-18.002331 1.16137,-4.493047 13.34913,-12.18001 13.34913,-8.419459 0,0.700222 0.82574,0.956267 1.83497,0.568988 1.00923,-0.387279 2.16743,-0.16621 2.57377,0.491264 0.40634,0.657474 1.83061,1.195407 3.16503,1.195407 1.33443,0 2.42623,0.595698 2.42623,1.323772 0,0.728073 0.5625,0.976127 1.25,0.551228 0.6875,-0.424898 1.25013,-0.31747 1.2503,0.238729 5.1e-4,1.74794 16.57211,9.038242 23.5282,10.350702 10.57805,1.99585 18.43588,-0.36224 32.7215,-9.819543 3.78125,-2.503246 8.42188,-5.342452 10.3125,-6.309346 1.89063,-0.966895 3.4375,-2.22544 3.4375,-2.796766 0,-0.571327 0.70313,-1.042241 1.5625,-1.046477 0.85938,-0.0042 3.08776,-0.80341 4.95196,-1.775945 3.95839,-2.065055 12.22082,-2.895536 14.54104,-1.461562 0.88596,0.547551 1.94963,0.656744 2.36373,0.24265 0.41409,-0.414093 1.78292,0.179262 3.04183,1.318566 1.25892,1.139303 2.28894,1.777044 2.28894,1.4172 0,-0.359843 2.53125,1.87699 5.625,4.97074 3.09375,3.09375 5.625,6.131141 5.625,6.749757 0,0.618617 0.84375,1.448534 1.875,1.844263 1.03125,0.395727 1.875,1.503074 1.875,2.460769 0,0.957694 0.52209,1.741264 1.16019,1.741264 2.8939,0 6.37105,13.97983 6.47321,26.02552 0.0925,10.91051 -0.22591,12.68178 -3.24066,18.02518 -1.83881,3.25914 -3.76288,6.18502 -4.2757,6.50196 -0.51283,0.31695 -2.94428,-1.50587 -5.40323,-4.0507 z"
       id="path3038"
       inkscape:connector-curvature="0" />
    <path
       style="fill:url(#pattern6127);fill-opacity:1;stroke:#000000;stroke-width:0.87462062;stroke-miterlimit:4;stroke-opacity:1;stroke-dasharray:none"
       d="m 235.19645,110.80572 c -16.148,-16.64701 -30.34072,-17.53082 -44.75204,-17.53079 -35.53577,0.8978 -53.73277,16.00931 -82.79739,36.25385 -11.22065,8.96033 -19.37631,12.13423 -27.65706,10.76315 C 54.38536,136.05249 26.23507,111.98912 11.87881,82.06932 7.37747,72.6881 5.2111999,65.4069 3.1900199,52.86471 1.5046399,39.76912 1.1148999,6.9916299 14.53762,3.2358599 c 8.39892,-1.41905 16.70709,6.48898 19.14494,9.1265501 18.49745,26.2622 45.2631,40.107 76.81903,34.04162 28.07819,-9.20778 44.55377,-21.52761 69.57588,-33.10895 15.79562,-7.2942001 29.44321,-11.0448301 41.81118,-11.4905401 11.10142,-0.40006 16.10669,0.96649 23.51219,6.41933 5.47423,4.0308201 7.89713,6.2638301 12.17295,11.2190601 10.52502,12.19734 17.24215,26.92519 23.60579,51.75751 1.59887,6.23911 1.88507,8.14681 2.96534,19.76449 1.58305,17.02508 1.90669,27.54551 1.03291,33.57579 -1.17885,8.13553 -6.86637,12.40076 -11.28981,14.40324 -13.2847,2.49286 -25.58218,-14.77652 -38.69157,-28.13824 z"
       id="path5341"
       inkscape:connector-curvature="0"
       sodipodi:nodetypes="cccsscccccsssssscc" />
    <path
       style="fill:none;stroke:#000000;stroke-width:2.17791343;stroke-miterlimit:4;stroke-opacity:1"
       d="m 49.273122,1.9248398 c 59.359148,-0.73916 117.761598,-0.60407 195.913608,-0.24911 10.73746,0.0487 42.41783,13.2865902 42.77391,70.0871902 0.37799,60.29565 -31.31582,69.33804 -42.77391,69.53562 -78.17236,1.34797 -112.41787,-1.2131 -193.92487,0.0281 C 36.75168,141.54765 1.3982857,131.40518 1.4534783,70.03111 1.5114523,5.5644098 33.600219,2.1200098 49.273122,1.9248398 z"
       id="rect6143"
       inkscape:connector-curvature="0"
       sodipodi:nodetypes="sssssss" />
    <path
       style="fill:none;stroke:#000000;stroke-width:1.98440242;stroke-miterlimit:4;stroke-opacity:1"
       d="M 1.735715,70.272638 144.67645,1.052563 287.80145,69.878833 144.86071,139.0989 z"
       id="rect6146"
       inkscape:connector-curvature="0"
       sodipodi:nodetypes="ccccc" />
  </g>
</svg>
